<svg display="none" xmlns="http://www.w3.org/2000/svg">
    <symbol id="cart" viewBox="0 0 139 139">
        <path d="M111.9,128H27.1c-1.4,0-2.6-1.2-2.6-2.6V43.6c0-1.4,1.2-2.6,2.6-2.6h84.8c1.4,0,2.6,1.2,2.6,2.6  v81.8C114.5,126.8,113.3,128,111.9,128z"/>
        <path d="M43.5,41c0-30,26-30,26-30s26,0,26,30"/>
    </symbol>
    <symbol id="login" viewBox="0 0 512 512">
        <path d="M131.5,472H60.693c-8.538,0-13.689-4.765-15.999-7.606c-3.988-4.906-5.533-11.29-4.236-17.519
            c20.769-99.761,108.809-172.616,210.445-174.98c1.693,0.063,3.39,0.105,5.097,0.105c1.722,0,3.434-0.043,5.142-0.107
            c24.853,0.567,49.129,5.24,72.236,13.917c10.34,3.885,21.871-1.352,25.754-11.693c3.883-10.34-1.352-21.871-11.693-25.754
            c-3.311-1.244-6.645-2.408-9.995-3.512C370.545,220.021,392,180.469,392,136C392,61.01,330.991,0,256,0
            c-74.991,0-136,61.01-136,136c0,44.509,21.492,84.092,54.643,108.918c-30.371,9.998-58.871,25.546-83.813,46.062
            c-45.732,37.617-77.529,90.086-89.532,147.743c-3.762,18.066,0.744,36.622,12.363,50.908C25.221,503.847,42.364,512,60.693,512
            H131.5c11.046,0,20-8.954,20-20C151.5,480.954,142.546,472,131.5,472z M160,136c0-52.935,43.065-96,96-96s96,43.065,96,96
            c0,51.367-40.554,93.438-91.326,95.885c-1.557-0.028-3.114-0.052-4.674-0.052c-1.564,0-3.127,0.023-4.689,0.051
            C200.546,229.43,160,187.362,160,136z"/>
        <path d="M496.689,344.607c-8.561-19.15-27.845-31.558-49.176-31.607h-62.372c-0.045,0-0.087,0-0.133,0
            c-22.5,0-42.13,13.26-50.029,33.807c-1.051,2.734-2.336,6.178-3.677,10.193H200.356c-5.407,0-10.583,2.189-14.35,6.068
            l-34.356,35.388c-7.567,7.794-7.529,20.203,0.085,27.95l35,35.612c3.76,3.826,8.9,5.981,14.264,5.981h65c11.046,0,20-8.954,20-20
            c0-11.046-8.954-20-20-20h-56.614l-15.428-15.698L208.814,397h137.491c9.214,0,17.235-6.295,19.426-15.244
            c1.618-6.607,3.648-12.959,6.584-20.596c1.936-5.036,6.798-8.16,12.741-8.16c0.013,0,0.026,0,0.039,0h62.371
            c5.656,0.013,10.524,3.053,12.705,7.932c5.369,12.012,11.78,30.608,11.828,50.986c0.048,20.529-6.356,39.551-11.739,51.894
            c-2.17,4.978-7.079,8.188-12.56,8.188c-0.011,0-0.022,0-0.033,0h-63.125c-5.533-0.013-10.716-3.573-12.896-8.858
            c-2.339-5.671-4.366-12.146-6.197-19.797c-2.571-10.742-13.367-17.366-24.105-14.796c-10.743,2.571-17.367,13.364-14.796,24.106
            c2.321,9.699,4.978,18.118,8.121,25.738c8.399,20.364,27.939,33.555,49.827,33.606h63.125c0.043,0,0.083,0,0.126,0
            c21.351-0.001,40.647-12.63,49.18-32.201c6.912-15.851,15.137-40.511,15.072-67.975
            C511.935,384.434,503.638,360.153,496.689,344.607z"/>
        <circle cx="431" cy="412" r="20"/>
    </symbol>
    <symbol id="instagram" viewBox="0 0 511 511.9">
      <path d="m510.949219 150.5c-1.199219-27.199219-5.597657-45.898438-11.898438-62.101562-6.5-17.199219-16.5-32.597657-29.601562-45.398438-12.800781-13-28.300781-23.101562-45.300781-29.5-16.296876-6.300781-34.898438-10.699219-62.097657-11.898438-27.402343-1.300781-36.101562-1.601562-105.601562-1.601562s-78.199219.300781-105.5 1.5c-27.199219 1.199219-45.898438 5.601562-62.097657 11.898438-17.203124 6.5-32.601562 16.5-45.402343 29.601562-13 12.800781-23.097657 28.300781-29.5 45.300781-6.300781 16.300781-10.699219 34.898438-11.898438 62.097657-1.300781 27.402343-1.601562 36.101562-1.601562 105.601562s.300781 78.199219 1.5 105.5c1.199219 27.199219 5.601562 45.898438 11.902343 62.101562 6.5 17.199219 16.597657 32.597657 29.597657 45.398438 12.800781 13 28.300781 23.101562 45.300781 29.5 16.300781 6.300781 34.898438 10.699219 62.101562 11.898438 27.296876 1.203124 36 1.5 105.5 1.5s78.199219-.296876 105.5-1.5c27.199219-1.199219 45.898438-5.597657 62.097657-11.898438 34.402343-13.300781 61.601562-40.5 74.902343-74.898438 6.296876-16.300781 10.699219-34.902343 11.898438-62.101562 1.199219-27.300781 1.5-36 1.5-105.5s-.101562-78.199219-1.300781-105.5zm-46.097657 209c-1.101562 25-5.300781 38.5-8.800781 47.5-8.601562 22.300781-26.300781 40-48.601562 48.601562-9 3.5-22.597657 7.699219-47.5 8.796876-27 1.203124-35.097657 1.5-103.398438 1.5s-76.5-.296876-103.402343-1.5c-25-1.097657-38.5-5.296876-47.5-8.796876-11.097657-4.101562-21.199219-10.601562-29.398438-19.101562-8.5-8.300781-15-18.300781-19.101562-29.398438-3.5-9-7.699219-22.601562-8.796876-47.5-1.203124-27-1.5-35.101562-1.5-103.402343s.296876-76.5 1.5-103.398438c1.097657-25 5.296876-38.5 8.796876-47.5 4.101562-11.101562 10.601562-21.199219 19.203124-29.402343 8.296876-8.5 18.296876-15 29.398438-19.097657 9-3.5 22.601562-7.699219 47.5-8.800781 27-1.199219 35.101562-1.5 103.398438-1.5 68.402343 0 76.5.300781 103.402343 1.5 25 1.101562 38.5 5.300781 47.5 8.800781 11.097657 4.097657 21.199219 10.597657 29.398438 19.097657 8.5 8.300781 15 18.300781 19.101562 29.402343 3.5 9 7.699219 22.597657 8.800781 47.5 1.199219 27 1.5 35.097657 1.5 103.398438s-.300781 76.300781-1.5 103.300781zm0 0"/><path d="m256.449219 124.5c-72.597657 0-131.5 58.898438-131.5 131.5s58.902343 131.5 131.5 131.5c72.601562 0 131.5-58.898438 131.5-131.5s-58.898438-131.5-131.5-131.5zm0 216.800781c-47.097657 0-85.300781-38.199219-85.300781-85.300781s38.203124-85.300781 85.300781-85.300781c47.101562 0 85.300781 38.199219 85.300781 85.300781s-38.199219 85.300781-85.300781 85.300781zm0 0"/><path d="m423.851562 119.300781c0 16.953125-13.746093 30.699219-30.703124 30.699219-16.953126 0-30.699219-13.746094-30.699219-30.699219 0-16.957031 13.746093-30.699219 30.699219-30.699219 16.957031 0 30.703124 13.742188 30.703124 30.699219zm0 0"/>
    </symbol>
    <!-- <symbol id="step1" viewBox="0 0 89.6 88.7"></symbol> -->
    <!-- <symbol id="step1" viewBox="0 0 89.6 88.7"></symbol> -->
    <!-- <symbol id="step1" viewBox="0 0 89.6 88.7"></symbol> -->
    <!-- <symbol id="step1" viewBox="0 0 89.6 88.7"></symbol> -->
</svg>
